<?xml version="1.0" standalone="no"?>
<!DOCTYPE svg PUBLIC "-//W3C//DTD SVG 20010904//EN"
 "http://www.w3.org/TR/2001/REC-SVG-20010904/DTD/svg10.dtd">
<svg version="1.0" xmlns="http://www.w3.org/2000/svg"
 width="1024.000000pt" height="1024.000000pt" viewBox="0 0 1024.000000 1024.000000"
 preserveAspectRatio="xMidYMid meet">
<metadata>
Created by potrace 1.11, written by Peter Selinger 2001-2013
</metadata>
<g transform="translate(0.000000,1024.000000) scale(0.100000,-0.100000)"
fill="#000000" stroke="none">
<path d="M3865 9553 c-11 -3 -40 -11 -65 -20 -25 -8 -112 -19 -195 -24 -82 -5
-251 -18 -375 -29 -124 -11 -281 -25 -350 -30 -147 -13 -232 -32 -317 -71 -71
-33 -113 -43 -258 -64 -167 -23 -249 -48 -337 -103 -20 -13 -76 -36 -124 -52
-108 -37 -170 -72 -189 -110 -50 -97 -11 -426 64 -540 38 -59 46 -92 71 -303
20 -176 55 -319 100 -407 19 -38 71 -305 90 -460 14 -122 35 -197 66 -238 42
-54 65 -152 84 -357 14 -147 25 -186 76 -283 33 -62 46 -100 54 -155 5 -39 16
-126 25 -192 25 -191 64 -364 96 -428 40 -81 57 -155 80 -337 28 -228 42 -279
95 -342 28 -34 50 -133 64 -288 19 -206 44 -315 86 -371 14 -19 36 -57 48 -84
25 -55 82 -111 124 -122 28 -7 173 19 217 39 13 6 29 24 34 40 6 16 47 65 91
110 45 44 106 114 136 154 30 41 68 81 84 89 34 18 72 65 94 118 10 24 25 41
43 48 42 16 73 49 98 104 26 59 36 68 88 85 36 11 67 50 67 84 0 27 51 75 90
86 43 11 70 42 70 77 0 34 54 90 95 97 36 7 55 30 55 64 0 26 67 99 110 120
23 11 36 25 38 41 2 14 35 55 75 95 40 39 95 100 122 135 58 75 88 106 137
143 20 15 47 51 62 80 20 42 36 58 73 78 46 24 62 45 98 130 6 13 33 35 60 50
39 20 57 38 79 79 17 32 46 65 75 86 29 21 58 54 75 84 27 51 49 72 105 103
19 11 38 33 47 55 17 40 81 113 99 113 13 0 55 42 55 55 0 15 85 114 103 120
10 4 28 21 40 39 64 97 123 164 186 214 23 18 51 53 64 77 14 29 38 55 70 75
37 23 54 43 73 84 28 61 35 69 96 99 35 18 46 31 61 72 22 61 40 80 92 98 33
11 44 22 65 65 31 62 67 102 92 102 25 0 68 44 68 68 0 27 74 108 106 116 17
5 30 19 40 42 12 29 77 102 133 149 6 6 40 48 76 95 35 47 86 104 114 128 28
24 62 64 74 89 17 33 36 52 72 71 42 23 55 37 80 90 26 51 39 66 75 85 44 21
50 30 94 127 7 14 33 36 61 50 38 19 55 35 71 68 24 51 70 102 91 102 8 0 28
13 44 29 33 34 36 64 15 155 -17 73 -47 104 -117 123 -70 18 -415 52 -904 89
-104 7 -229 23 -276 34 -84 19 -118 20 -1255 19 -643 -1 -1178 -3 -1189 -6z"/>
<path d="M7878 9233 c-21 -3 -49 -30 -107 -101 -44 -53 -96 -109 -115 -124
-19 -15 -51 -55 -72 -88 -24 -40 -51 -68 -80 -85 -28 -16 -53 -43 -70 -73 -32
-55 -73 -102 -90 -102 -16 0 -74 -67 -74 -85 0 -21 -58 -83 -94 -100 -20 -10
-41 -35 -62 -73 -23 -44 -42 -64 -82 -87 -31 -18 -56 -41 -64 -59 -17 -41 -64
-94 -109 -122 -21 -13 -45 -39 -54 -58 -9 -19 -44 -61 -78 -93 -34 -33 -89
-94 -122 -137 -33 -42 -82 -95 -108 -118 -27 -23 -64 -64 -82 -93 -19 -28 -45
-59 -59 -68 -37 -25 -64 -56 -94 -110 -17 -31 -39 -55 -62 -67 -43 -22 -65
-45 -84 -90 -19 -46 -48 -75 -96 -100 -28 -14 -47 -34 -64 -68 -27 -52 -56
-83 -101 -103 -18 -9 -39 -32 -53 -59 -28 -53 -66 -96 -104 -116 -15 -8 -43
-38 -62 -68 -19 -29 -55 -71 -81 -92 -25 -22 -72 -79 -104 -129 -50 -77 -60
-101 -71 -169 l-13 -79 49 -46 c135 -125 195 -169 257 -186 82 -23 151 -59
183 -95 30 -33 93 -65 150 -75 43 -8 154 -63 154 -77 0 -17 97 -69 175 -94 80
-25 155 -66 155 -84 0 -15 65 -45 160 -74 89 -27 116 -44 142 -86 12 -20 42
-35 129 -64 112 -38 169 -64 169 -77 0 -3 11 -17 24 -30 16 -17 64 -36 142
-59 110 -33 121 -38 169 -86 37 -37 61 -53 90 -58 56 -11 169 -69 208 -109 25
-24 55 -39 112 -56 98 -28 168 -63 211 -105 24 -23 56 -39 110 -55 85 -25 145
-59 169 -95 17 -26 88 -57 172 -76 59 -13 130 -56 139 -83 7 -22 61 -46 182
-83 75 -23 93 -33 129 -71 37 -39 57 -50 154 -84 115 -39 120 -42 174 -96 18
-18 40 -33 48 -33 20 0 242 -85 288 -110 20 -11 47 -20 60 -20 44 0 164 88
200 147 20 31 20 47 16 760 -3 625 -6 738 -20 801 -12 53 -16 114 -14 220 1
94 -4 196 -15 282 -10 74 -27 236 -39 360 -11 124 -22 232 -24 240 -2 8 -11
85 -20 170 -18 180 -30 233 -78 350 -20 47 -50 150 -67 229 -36 159 -46 188
-90 258 -17 26 -44 90 -61 142 -36 113 -51 144 -98 197 -20 23 -55 80 -78 125
-26 51 -60 102 -89 129 -25 25 -64 69 -85 97 -22 29 -64 70 -93 92 -30 22 -64
56 -76 76 -13 21 -52 56 -89 80 -36 23 -82 58 -102 78 -20 20 -83 59 -139 87
-57 28 -124 66 -150 84 -26 18 -103 51 -171 75 -68 24 -152 58 -186 77 -54 30
-69 34 -130 33 -37 -1 -80 -4 -95 -6z"/>
<path d="M1387 8689 c-18 -43 -42 -63 -92 -79 -63 -20 -69 -24 -86 -71 -21
-57 -59 -95 -104 -103 -38 -7 -38 -8 -70 -99 -18 -52 -60 -87 -102 -87 -24 0
-24 0 -44 -105 -20 -110 -26 -130 -43 -163 -9 -17 -34 -43 -56 -57 -46 -29
-56 -56 -71 -200 -14 -140 -42 -228 -78 -254 -16 -12 -34 -21 -40 -21 -20 0
-31 -50 -37 -168 -9 -204 -39 -566 -47 -580 -8 -11 -54 -251 -63 -322 -3 -30
-15 -77 -26 -105 -19 -47 -21 -91 -31 -715 -7 -483 -7 -842 1 -1310 12 -677
11 -668 62 -861 11 -41 27 -124 35 -183 8 -60 17 -112 20 -116 3 -4 7 -36 10
-71 3 -35 10 -99 15 -142 5 -43 12 -139 15 -215 11 -260 9 -253 68 -316 60
-63 73 -96 88 -226 19 -169 26 -196 63 -224 41 -31 92 -110 101 -156 18 -96
31 -133 52 -147 12 -8 42 -39 67 -70 41 -50 52 -72 70 -153 4 -21 14 -27 58
-37 60 -15 84 -38 94 -91 9 -50 18 -59 65 -67 53 -9 86 -40 102 -94 12 -44 13
-45 77 -61 92 -23 167 -64 191 -105 23 -39 30 -42 131 -60 83 -15 161 -58 194
-107 22 -32 65 -44 194 -53 100 -8 175 -22 210 -40 14 -8 47 -24 74 -37 26
-12 54 -31 61 -41 10 -15 36 -19 151 -27 614 -42 557 -40 582 -17 16 15 21 28
17 45 -3 12 -10 107 -15 210 -12 245 -15 257 -56 282 -66 42 -96 164 -109 450
-3 80 -11 179 -16 220 -9 71 -13 77 -54 115 -24 22 -48 50 -54 62 -20 40 -31
124 -41 301 -12 211 -19 240 -65 269 -19 13 -44 41 -55 62 -22 45 -50 241 -50
361 -1 129 -16 208 -49 246 -16 18 -31 30 -34 28 -2 -3 -16 33 -31 78 -22 68
-30 119 -42 288 -22 305 -24 314 -83 371 -43 41 -51 54 -66 120 -9 41 -21 146
-25 234 -5 88 -12 171 -15 185 -4 14 -21 34 -38 45 -69 45 -94 127 -107 365
-20 363 -18 350 -58 385 -78 68 -112 201 -112 440 0 170 -12 230 -49 249 -74
39 -110 147 -117 351 -8 234 -9 240 -59 291 -78 79 -93 154 -114 579 l-8 170
-60 61 c-43 44 -63 73 -71 105 -7 24 -16 134 -21 244 -5 110 -12 207 -16 216
-3 9 -21 23 -41 32 -42 20 -70 65 -84 132 -5 27 -17 172 -26 320 -9 149 -17
272 -19 274 -2 2 -10 -12 -18 -30z"/>
<path d="M5103 6115 c-108 -14 -138 -31 -164 -90 -20 -46 -51 -75 -80 -75 -28
0 -67 -38 -79 -78 -16 -47 -55 -89 -92 -97 -30 -7 -51 -32 -63 -75 -13 -46
-53 -88 -97 -102 -36 -12 -45 -21 -55 -52 -18 -53 -61 -105 -102 -124 -22 -11
-42 -31 -53 -52 -14 -30 -58 -80 -122 -140 -30 -28 -96 -111 -118 -149 -11
-20 -42 -50 -66 -66 -33 -21 -56 -48 -80 -92 -28 -52 -41 -66 -78 -83 -39 -17
-49 -27 -74 -83 -32 -72 -42 -82 -86 -91 -38 -8 -60 -31 -70 -71 -11 -47 -41
-83 -82 -96 -51 -16 -60 -25 -73 -72 -13 -50 -68 -107 -101 -107 -29 0 -53
-24 -62 -63 -8 -35 -73 -107 -96 -107 -21 0 -45 -26 -55 -60 -4 -13 -42 -59
-84 -101 -89 -87 -110 -132 -137 -285 -17 -90 -17 -102 0 -202 9 -59 23 -161
31 -227 24 -191 35 -228 86 -293 23 -30 45 -132 64 -297 19 -166 55 -324 94
-414 35 -78 61 -195 86 -381 23 -174 39 -240 80 -318 48 -91 63 -152 80 -317
17 -169 34 -239 80 -328 28 -52 40 -94 55 -190 32 -194 37 -218 61 -282 14
-38 36 -74 61 -97 l39 -38 1654 0 c1804 0 1790 0 1985 57 129 38 233 61 360
78 139 19 233 46 285 80 47 32 84 47 204 80 101 28 151 50 213 96 22 15 65 38
95 49 85 32 124 54 187 110 32 28 83 65 113 82 29 17 72 52 95 79 23 27 63 63
89 79 31 19 61 49 85 87 20 31 58 78 84 103 27 25 70 83 96 130 26 47 62 101
80 120 41 46 49 62 95 197 24 73 49 126 67 148 34 38 64 124 86 243 20 106 43
186 69 237 41 82 67 180 78 294 6 64 24 226 39 361 16 135 32 286 35 335 4 50
13 121 20 159 l13 70 -56 94 c-67 112 -100 139 -214 176 -111 36 -125 43 -139
79 -12 28 -73 66 -109 67 -8 0 -51 14 -95 32 -64 25 -86 39 -107 69 -22 31
-38 41 -85 54 -113 31 -195 67 -229 102 -35 35 -89 63 -121 63 -30 0 -141 57
-155 80 -19 31 -88 68 -160 86 -78 20 -136 49 -161 81 -25 32 -74 55 -182 88
-74 23 -96 34 -126 66 -35 38 -137 89 -209 104 -53 11 -88 32 -104 64 -8 15
-28 33 -43 39 -15 6 -77 29 -138 51 -60 23 -114 48 -120 58 -25 43 -57 61
-170 97 -118 38 -155 57 -155 82 0 21 -51 51 -107 63 -80 17 -173 63 -218 108
-27 27 -56 45 -85 52 -106 27 -195 65 -225 97 -35 37 -71 57 -139 73 -66 16
-100 35 -138 77 -33 36 -91 66 -162 84 -70 18 -133 51 -145 77 -13 28 -73 56
-186 86 -70 19 -86 27 -126 69 -40 42 -59 52 -152 83 -58 19 -109 35 -114 34
-4 -1 -49 -7 -100 -14z"/>
</g>
</svg>
